<mxfile host="app.diagrams.net" modified="2022-09-09T16:15:17.337Z" agent="5.0 (Windows NT 10.0; Win64; x64) AppleWebKit/537.36 (KHTML, like Gecko) Chrome/105.0.0.0 Safari/537.36" etag="2tflK7b23wow8R3ggTog" version="20.3.0" type="github">
  <diagram id="HETSaFDOYJ-44KBK2jvi" name="Страница 1">
    <mxGraphModel dx="1038" dy="579" grid="1" gridSize="10" guides="1" tooltips="1" connect="1" arrows="1" fold="1" page="1" pageScale="1" pageWidth="827" pageHeight="1169" math="0" shadow="0">
      <root>
        <mxCell id="0" />
        <mxCell id="1" parent="0" />
        <mxCell id="1aW6S1T3DhxhuNjF5gv7-1" value="" style="rounded=1;whiteSpace=wrap;html=1;fillColor=#f5f5f5;strokeColor=#666666;fontColor=#333333;" vertex="1" parent="1">
          <mxGeometry x="40" y="120" width="600" height="280" as="geometry" />
        </mxCell>
        <mxCell id="1aW6S1T3DhxhuNjF5gv7-2" value="&lt;font style=&quot;font-size: 18px;&quot;&gt;&lt;font style=&quot;font-size: 18px;&quot;&gt;&lt;b&gt;VPC&amp;nbsp;&lt;/b&gt;&lt;/font&gt;&lt;span style=&quot;color: rgb(22, 25, 31); font-family: &amp;quot;Amazon Ember&amp;quot;, &amp;quot;Helvetica Neue&amp;quot;, Roboto, Arial, sans-serif; text-align: start; background-color: rgb(255, 255, 255);&quot;&gt;10.0.0.0/16&lt;/span&gt;&lt;/font&gt;" style="text;html=1;align=center;verticalAlign=middle;resizable=0;points=[];autosize=1;strokeColor=none;fillColor=none;" vertex="1" parent="1">
          <mxGeometry x="40" y="80" width="160" height="40" as="geometry" />
        </mxCell>
        <mxCell id="1aW6S1T3DhxhuNjF5gv7-6" value="" style="rounded=1;whiteSpace=wrap;html=1;dashed=1;fontSize=18;fillColor=#fff2cc;strokeColor=#d6b656;" vertex="1" parent="1">
          <mxGeometry x="60" y="140" width="480" height="110" as="geometry" />
        </mxCell>
        <mxCell id="1aW6S1T3DhxhuNjF5gv7-7" value="" style="rounded=1;whiteSpace=wrap;html=1;dashed=1;fontSize=18;fillColor=#fff2cc;strokeColor=#d6b656;" vertex="1" parent="1">
          <mxGeometry x="60" y="272" width="480" height="110" as="geometry" />
        </mxCell>
        <mxCell id="1aW6S1T3DhxhuNjF5gv7-8" value="&lt;b&gt;AVAILABLE ZONE A&lt;/b&gt;" style="text;html=1;align=center;verticalAlign=middle;resizable=0;points=[];autosize=1;strokeColor=none;fillColor=none;fontSize=10;" vertex="1" parent="1">
          <mxGeometry x="240" y="228" width="120" height="30" as="geometry" />
        </mxCell>
        <mxCell id="1aW6S1T3DhxhuNjF5gv7-9" value="&lt;b&gt;AVAILABLE ZONE B&lt;/b&gt;" style="text;html=1;align=center;verticalAlign=middle;resizable=0;points=[];autosize=1;strokeColor=none;fillColor=none;fontSize=10;" vertex="1" parent="1">
          <mxGeometry x="240" y="360" width="120" height="30" as="geometry" />
        </mxCell>
        <mxCell id="1aW6S1T3DhxhuNjF5gv7-11" value="" style="rounded=0;whiteSpace=wrap;html=1;dashed=1;fontSize=10;fillColor=#FFFF99;fontColor=#000000;strokeColor=#B09500;" vertex="1" parent="1">
          <mxGeometry x="70" y="150" width="120" height="80" as="geometry" />
        </mxCell>
        <mxCell id="1aW6S1T3DhxhuNjF5gv7-12" value="" style="rounded=0;whiteSpace=wrap;html=1;dashed=1;fontSize=10;fillColor=#FFFF99;" vertex="1" parent="1">
          <mxGeometry x="207" y="151" width="120" height="80" as="geometry" />
        </mxCell>
        <mxCell id="1aW6S1T3DhxhuNjF5gv7-13" value="" style="rounded=0;whiteSpace=wrap;html=1;dashed=1;fontSize=10;fillColor=#FFFF99;" vertex="1" parent="1">
          <mxGeometry x="345" y="151" width="120" height="80" as="geometry" />
        </mxCell>
        <mxCell id="1aW6S1T3DhxhuNjF5gv7-14" value="" style="rounded=0;whiteSpace=wrap;html=1;dashed=1;fontSize=10;fillColor=#FFFF99;" vertex="1" parent="1">
          <mxGeometry x="72" y="285" width="120" height="80" as="geometry" />
        </mxCell>
        <mxCell id="1aW6S1T3DhxhuNjF5gv7-15" value="" style="rounded=0;whiteSpace=wrap;html=1;dashed=1;fontSize=10;fillColor=#FFFF99;" vertex="1" parent="1">
          <mxGeometry x="211" y="286" width="120" height="80" as="geometry" />
        </mxCell>
        <mxCell id="1aW6S1T3DhxhuNjF5gv7-16" value="" style="rounded=0;whiteSpace=wrap;html=1;dashed=1;fontSize=10;fillColor=#FFFF99;" vertex="1" parent="1">
          <mxGeometry x="347" y="286" width="120" height="80" as="geometry" />
        </mxCell>
        <mxCell id="1aW6S1T3DhxhuNjF5gv7-17" value="PUBLIC 10.0.10.0/24" style="text;html=1;align=center;verticalAlign=middle;resizable=0;points=[];autosize=1;strokeColor=none;fillColor=none;fontSize=10;" vertex="1" parent="1">
          <mxGeometry x="345" y="210" width="120" height="30" as="geometry" />
        </mxCell>
        <mxCell id="1aW6S1T3DhxhuNjF5gv7-18" value="PUBLIC 10.0.20.0/24" style="text;html=1;align=center;verticalAlign=middle;resizable=0;points=[];autosize=1;strokeColor=none;fillColor=none;fontSize=10;" vertex="1" parent="1">
          <mxGeometry x="347" y="344" width="120" height="30" as="geometry" />
        </mxCell>
        <mxCell id="1aW6S1T3DhxhuNjF5gv7-19" value="PRIVATE 10.0.11.0/24&lt;span style=&quot;color: rgba(0, 0, 0, 0); font-family: monospace; font-size: 0px; text-align: start;&quot;&gt;%3CmxGraphModel%3E%3Croot%3E%3CmxCell%20id%3D%220%22%2F%3E%3CmxCell%20id%3D%221%22%20parent%3D%220%22%2F%3E%3CmxCell%20id%3D%222%22%20value%3D%22PUBLIC%2010.0.10.0%2F24%22%20style%3D%22text%3Bhtml%3D1%3Balign%3Dcenter%3BverticalAlign%3Dmiddle%3Bresizable%3D0%3Bpoints%3D%5B%5D%3Bautosize%3D1%3BstrokeColor%3Dnone%3BfillColor%3Dnone%3BfontSize%3D10%3B%22%20vertex%3D%221%22%20parent%3D%221%22%3E%3CmxGeometry%20x%3D%22347%22%20y%3D%22210%22%20width%3D%22120%22%20height%3D%2230%22%20as%3D%22geometry%22%2F%3E%3C%2FmxCell%3E%3C%2Froot%3E%3C%2FmxGraphModel%3E&lt;/span&gt;" style="text;html=1;align=center;verticalAlign=middle;resizable=0;points=[];autosize=1;strokeColor=none;fillColor=none;fontSize=10;" vertex="1" parent="1">
          <mxGeometry x="207" y="209" width="120" height="30" as="geometry" />
        </mxCell>
        <mxCell id="1aW6S1T3DhxhuNjF5gv7-20" value="PRIVATE 10.0.21.0/24&lt;span style=&quot;color: rgba(0, 0, 0, 0); font-family: monospace; font-size: 0px; text-align: start;&quot;&gt;%3CmxGraphModel%3E%3Croot%3E%3CmxCell%20id%3D%220%22%2F%3E%3CmxCell%20id%3D%221%22%20parent%3D%220%22%2F%3E%3CmxCell%20id%3D%222%22%20value%3D%22PUBLIC%2010.0.10.0%2F24%22%20style%3D%22text%3Bhtml%3D1%3Balign%3Dcenter%3BverticalAlign%3Dmiddle%3Bresizable%3D0%3Bpoints%3D%5B%5D%3Bautosize%3D1%3BstrokeColor%3Dnone%3BfillColor%3Dnone%3BfontSize%3D10%3B%22%20vertex%3D%221%22%20parent%3D%221%22%3E%3CmxGeometry%20x%3D%22347%22%20y%3D%22210%22%20width%3D%22120%22%20height%3D%2230%22%20as%3D%22geometry%22%2F%3E%3C%2FmxCell%3E%3C%2Froot%3E%3C%2FmxGraphModel%3E&lt;/span&gt;" style="text;html=1;align=center;verticalAlign=middle;resizable=0;points=[];autosize=1;strokeColor=none;fillColor=none;fontSize=10;" vertex="1" parent="1">
          <mxGeometry x="211" y="344" width="120" height="30" as="geometry" />
        </mxCell>
        <mxCell id="1aW6S1T3DhxhuNjF5gv7-21" value="DATABASE 10.0.12.0/24" style="text;html=1;align=center;verticalAlign=middle;resizable=0;points=[];autosize=1;strokeColor=none;fillColor=none;fontSize=10;" vertex="1" parent="1">
          <mxGeometry x="65" y="208" width="130" height="30" as="geometry" />
        </mxCell>
        <mxCell id="1aW6S1T3DhxhuNjF5gv7-22" value="DATABASE 10.0.22.0/24" style="text;html=1;align=center;verticalAlign=middle;resizable=0;points=[];autosize=1;strokeColor=none;fillColor=none;fontSize=10;" vertex="1" parent="1">
          <mxGeometry x="67" y="343" width="130" height="30" as="geometry" />
        </mxCell>
      </root>
    </mxGraphModel>
  </diagram>
</mxfile>
